<?xml version="1.0" standalone="no"?>
<!DOCTYPE svg PUBLIC "-//W3C//DTD SVG 20010904//EN"
 "http://www.w3.org/TR/2001/REC-SVG-20010904/DTD/svg10.dtd">
<svg version="1.0" xmlns="http://www.w3.org/2000/svg"
 width="28.000000pt" height="28.000000pt" viewBox="0 0 28.000000 28.000000"
 preserveAspectRatio="xMidYMid meet">
<metadata>
Created by potrace 1.15, written by Peter Selinger 2001-2017
</metadata>
<g transform="translate(0.000000,28.000000) scale(0.100000,-0.100000)"
fill="#000000" stroke="none">
<path d="M119 239 c-11 -34 -20 -44 -66 -65 -29 -14 -53 -29 -53 -34 0 -5 17
-14 38 -21 33 -9 43 -20 65 -65 15 -30 31 -54 36 -54 6 0 15 17 22 38 9 33 20
43 65 65 30 15 54 31 54 35 0 5 -18 14 -40 21 -35 10 -45 20 -67 67 -15 29
-31 54 -35 54 -4 0 -13 -18 -19 -41z"/>
</g>
</svg>
